<!-- Generator: Adobe Illustrator 19.0.1, SVG Export Plug-In  -->
<svg version="1.1"
	 xmlns="http://www.w3.org/2000/svg" xmlns:xlink="http://www.w3.org/1999/xlink" xmlns:a="http://ns.adobe.com/AdobeSVGViewerExtensions/3.0/"
	 x="0px" y="0px" width="60.9px" height="51.1px" viewBox="0 0 60.9 51.1" style="enable-background:new 0 0 60.9 51.1;"
	 xml:space="preserve">
<defs>
</defs>
<path d="M60.4,17c-0.5-0.6-1.2-1-2-1h-8.8L32.2,0.6c-0.9-0.8-2.4-0.8-3.3,0L11.6,16.1H2.5c-0.8,0-1.5,0.4-2,1
	c-0.5,0.6-0.6,1.4-0.4,2.2l8.2,30c0.3,1.1,1.3,1.8,2.4,1.8h39.5c1.1,0,2.1-0.8,2.4-1.8l8.2-30C61,18.5,60.8,17.7,60.4,17z M30.6,5.9
	L42,16.1H19.1L30.6,5.9z"/>
</svg>
