<!-- Generator: Adobe Illustrator 19.2.0, SVG Export Plug-In  -->
<svg version="1.1"
	 xmlns="http://www.w3.org/2000/svg" xmlns:xlink="http://www.w3.org/1999/xlink" xmlns:a="http://ns.adobe.com/AdobeSVGViewerExtensions/3.0/"
	 x="0px" y="0px" width="24px" height="19px" viewBox="0 0 24 19" style="enable-background:new 0 0 24 19;" xml:space="preserve">
<defs>
</defs>
<g>
	<path d="M16.5,5.1h-1.9l-1.1-1.2H10L8.9,5.1H7.1c-0.7,0-1.2,0.5-1.2,1.2v7.1c0,0.7,0.5,1.2,1.2,1.2h9.5
		c0.7,0,1.2-0.5,1.2-1.2V6.3C17.7,5.6,17.2,5.1,16.5,5.1z M8.8,9.8c0-1.6,1.3-2.9,3-2.9c1,0,1.8,0.5,2.4,1.2h-2.4
		c-1,0-1.8,0.8-1.8,1.8c0,0.2,0,0.4,0.1,0.6H8.9C8.9,10.2,8.8,10,8.8,9.8z M11.8,12.7c-1,0-1.8-0.5-2.4-1.2h2.4c1,0,1.8-0.8,1.8-1.8
		c0-0.2,0-0.4-0.1-0.6h1.2c0,0.2,0.1,0.4,0.1,0.6C14.8,11.4,13.4,12.7,11.8,12.7z"/>
	<path d="M0,19h24V0H0V19z M3,3h18v13H3V3z"/>
</g>
</svg>
