<!-- Generator: Adobe Illustrator 19.2.0, SVG Export Plug-In  -->
<svg version="1.1"
	 xmlns="http://www.w3.org/2000/svg" xmlns:xlink="http://www.w3.org/1999/xlink" xmlns:a="http://ns.adobe.com/AdobeSVGViewerExtensions/3.0/"
	 x="0px" y="0px" width="50.6px" height="45.5px" viewBox="0 0 50.6 45.5" style="enable-background:new 0 0 50.6 45.5;"
	 xml:space="preserve">
<defs>
</defs>
<g>
	<path d="M49.6,8.6H20.1c-1,0-1.5,0.7-1.2,1.7l4.7,13.7c0.2,0.7,1,1.3,1.8,1.3h19.3c0.8,0,1.6-0.6,1.8-1.3l4.1-14
		C50.8,9.2,50.3,8.6,49.6,8.6z"/>
	<circle cx="22.7" cy="41" r="4.4"/>
	<circle cx="41.4" cy="41.1" r="4.4"/>
	<path d="M46.7,29.7H20.9L10.5,0h-8C1.1,0,0,1.1,0,2.5S1.1,5,2.5,5H7l10.3,29.7h29.4c1.4,0,2.5-1.1,2.5-2.5
		C49.2,30.9,48.1,29.7,46.7,29.7z"/>
</g>
</svg>
