<!-- Generator: Adobe Illustrator 19.0.1, SVG Export Plug-In  -->
<svg version="1.1"
	 xmlns="http://www.w3.org/2000/svg" xmlns:xlink="http://www.w3.org/1999/xlink" xmlns:a="http://ns.adobe.com/AdobeSVGViewerExtensions/3.0/"
	 x="0px" y="0px" width="28.8px" height="28.5px" viewBox="0 0 28.8 28.5" style="enable-background:new 0 0 28.8 28.5;"
	 xml:space="preserve">
<defs>
</defs>
<path d="M17.9,14.4L28,4.3c1-1,1-2.6,0-3.5s-2.6-1-3.5,0L14.4,10.8L4.3,0.7c-1-1-2.6-1-3.5,0s-1,2.6,0,3.5l10.1,10.1L1,24.2
	c-1,1-1,2.6,0,3.5c0.5,0.5,1.1,0.7,1.8,0.7s1.3-0.2,1.8-0.7l9.9-9.9l9.9,9.9c0.5,0.5,1.1,0.7,1.8,0.7s1.3-0.2,1.8-0.7
	c1-1,1-2.6,0-3.5L17.9,14.4z"/>
</svg>
