<!-- Generator: Adobe Illustrator 19.0.1, SVG Export Plug-In  -->
<svg version="1.1"
	 xmlns="http://www.w3.org/2000/svg" xmlns:xlink="http://www.w3.org/1999/xlink" xmlns:a="http://ns.adobe.com/AdobeSVGViewerExtensions/3.0/"
	 x="0px" y="0px" width="48.3px" height="48.4px" viewBox="0 0 48.3 48.4" style="enable-background:new 0 0 48.3 48.4;"
	 xml:space="preserve">
<defs>
</defs>
<g>
	<circle cx="24.2" cy="24.2" r="4.2"/>
	<path d="M47.4,20L41.5,19c-0.4-1.2-0.8-2.3-1.4-3.4l3.4-4.9c0.3-0.5,0.2-1.1-0.1-1.5L39.2,5c-0.4-0.4-1.1-0.5-1.5-0.1l-4.9,3.4
		c-1.1-0.6-2.3-1.1-3.5-1.4L28.2,1c-0.1-0.5-0.6-1-1.2-1h-5.9c-0.6,0-1.1,0.4-1.2,1l-1.1,5.9c-1.2,0.4-2.3,0.8-3.3,1.4l-4.9-3.3
		C10.2,4.6,9.5,4.6,9.1,5L5,9.2c-0.4,0.4-0.5,1.1-0.1,1.5l3.3,4.9c-0.6,1.1-1,2.2-1.4,3.3L1,20c-0.5,0.1-1,0.6-1,1.2v5.9
		c0,0.6,0.4,1.1,1,1.2l5.8,1.1c0.4,1.2,0.8,2.3,1.4,3.4l-3.3,4.8c-0.3,0.5-0.2,1.1,0.1,1.5l4.2,4.2c0.4,0.4,1.1,0.5,1.5,0.1l4.8-3.3
		c1,0.6,2.1,1,3.3,1.4l1.1,5.9c0.1,0.5,0.6,1,1.2,1H27c0.6,0,1.1-0.4,1.2-1l1.1-5.8c1.2-0.4,2.4-0.8,3.4-1.4l4.9,3.4
		c0.5,0.3,1.1,0.2,1.5-0.1l4.2-4.2c0.4-0.4,0.5-1.1,0.1-1.5l-3.3-4.9c0.6-1.1,1.1-2.2,1.4-3.4l5.8-1.1c0.5-0.1,1-0.6,1-1.2v-5.9
		C48.3,20.7,47.9,20.1,47.4,20z M24.2,34.3c-5.6,0-10.1-4.5-10.1-10.1c0-5.6,4.5-10.1,10.1-10.1c5.6,0,10.1,4.5,10.1,10.1
		C34.3,29.7,29.7,34.3,24.2,34.3z"/>
</g>
</svg>
