<svg id="Layer_1" data-name="Layer 1" xmlns="http://www.w3.org/2000/svg" width="511.76" height="462.72" viewBox="0 0 511.76 462.72">
    <g id="deck_chair" data-name="deck chair">
        <g>
            <polygon points="212.06 188.78 110.7 213.71 365.29 321.13 440.88 283.8 212.06 188.78"/>
            <path d="M167.43,1c5.28-2.72,11.32.43,13.5,7l25.14,78.74a8.34,8.34,0,0,1,2.69.19l99.53,25.86c5.59,1.46,9.18,8.3,8,15.29-1,6.1-5.32,10.29-10.11,10.29a8.55,8.55,0,0,1-2.12-.27l-88.69-23L228,153.32l240,103.13,42.67,88.86c2.27,6.55,1.29,13.21-4,16-1.34.72-10.58,4-15-5.78l-39-78.11L212.5,174.24,161.8,17.84C159.63,11.24,162.15,3.69,167.43,1Z" transform="translate(0 0)"/>
            <path d="M165.32,170.22c5.55,0,10.59-4.72,12-11.76,1.6-8.26-2.45-16.58-9.05-18.59L71.56,110.56a1.91,1.91,0,0,0-1.25.05L41.08,18.43l110,.14,49.84,157.81L98.81,197.93,81.6,145.22l80.79,24.56A10,10,0,0,0,165.32,170.22Z" transform="translate(0 0)"/>
            <path d="M1.21,22,67.64,238.13,39.49,321.95c-2.21,6.58.26,14.15,5.53,16.92a8.58,8.58,0,0,0,4,1c4,0,7.87-3,9.54-7.92L71.4,293.7l75.54-14,182.77,75.58,28.19,97.92c1.93,6.32,8.69,12,18.53,8.38,7.33-2.7,7.65-11.52,5.15-19.7L349.33,330.66,88.67,218.34,24.82,10.4c-2.56-8.15-10-10-17.12-7.71C-.15,5.16-1.35,13.83,1.21,22Zm77,251.59,7.63-22.71,32.42,15.29Z" transform="translate(0 0)"/>
        </g>
    </g>
</svg>
