<!-- Generator: Adobe Illustrator 19.0.1, SVG Export Plug-In  -->
<svg version="1.1"
	 xmlns="http://www.w3.org/2000/svg" xmlns:xlink="http://www.w3.org/1999/xlink" xmlns:a="http://ns.adobe.com/AdobeSVGViewerExtensions/3.0/"
	 x="0px" y="0px" width="44.8px" height="29px" viewBox="0 0 44.8 29" style="enable-background:new 0 0 44.8 29;"
	 xml:space="preserve">
<defs>
</defs>
<g>
	<path d="M2.5,5h39.8c1.4,0,2.5-1.1,2.5-2.5S43.7,0,42.3,0H2.5C1.1,0,0,1.1,0,2.5S1.1,5,2.5,5z"/>
	<path d="M42.3,12H2.5C1.1,12,0,13.1,0,14.5S1.1,17,2.5,17h39.8c1.4,0,2.5-1.1,2.5-2.5S43.7,12,42.3,12z"/>
	<path d="M42.3,24H2.5C1.1,24,0,25.1,0,26.5S1.1,29,2.5,29h39.8c1.4,0,2.5-1.1,2.5-2.5S43.7,24,42.3,24z"/>
</g>
</svg>
