<svg id="Layer_1" data-name="Layer 1" xmlns="http://www.w3.org/2000/svg" viewBox="0 0 490 139.69">
    <path d="M498.93,246.14,477.58,276l-7.47-20.28s5.34,42.61-36.3,43.77c-38.43,1.07-72.76-78.25-113.56-86.41-40.07-8-64.39,46.92-65.25,48.9-.86-2-25.19-56.91-65.25-48.9-40.8,8.16-75.13,87.48-113.56,86.41-41.63-1.16-36.3-43.77-36.3-43.77L32.42,276,11.07,246.14s-18.15,100.35,95,105.69c80.83,3.81,147.82-56.1,148.92-57.1,1.1,1,68.09,60.91,148.92,57.1C517.08,346.49,498.93,246.14,498.93,246.14Z" transform="translate(-10 -212.31)"/></svg>
