<!-- Generator: Adobe Illustrator 19.2.0, SVG Export Plug-In  -->
<svg version="1.1"
	 xmlns="http://www.w3.org/2000/svg" xmlns:xlink="http://www.w3.org/1999/xlink" xmlns:a="http://ns.adobe.com/AdobeSVGViewerExtensions/3.0/"
	 x="0px" y="0px" width="50.6px" height="50.6px" viewBox="0 0 50.6 50.6" style="enable-background:new 0 0 50.6 50.6;"
	 xml:space="preserve">
<defs>
</defs>
<path d="M49.7,45.4L35.4,31.2c2.5-3.4,3.8-7.4,3.8-11.6C39.2,8.8,30.4,0,19.6,0S0,8.8,0,19.6s8.8,19.6,19.6,19.6
	c4.2,0,8.2-1.3,11.6-3.8l14.2,14.2c0.6,0.6,1.3,0.9,2.1,0.9c0.8,0,1.6-0.3,2.1-0.9C50.9,48.5,50.9,46.6,49.7,45.4z M19.6,33.2
	C12.1,33.2,6,27.1,6,19.6S12.1,6,19.6,6s13.6,6.1,13.6,13.6S27.1,33.2,19.6,33.2z"/>
</svg>
