<svg id="Layer_1" data-name="Layer 1" xmlns="http://www.w3.org/2000/svg" viewBox="0 0 49.7 46.65"><path d="M28.66,51.68H28c-2.94,0-4.83-1.34-6.66-2.63a9.72,9.72,0,0,0-3.86-2,12.45,12.45,0,0,0-2-.17,13.85,13.85,0,0,0-2.81.32,6.14,6.14,0,0,1-1,.15.66.66,0,0,1-.73-.52c-.12-.4-.2-.78-.28-1.15-.21-1-.36-1.54-.76-1.61-4.67-.72-6-1.7-6.3-2.4a.9.9,0,0,1-.07-.3.53.53,0,0,1,.44-.55c7.18-1.18,10.4-8.52,10.53-8.83v0a2.73,2.73,0,0,0,.26-2.3c-.49-1.16-2.1-1.67-3.16-2-.26-.08-.51-.16-.7-.24-2.12-.84-2.3-1.7-2.22-2.14a2,2,0,0,1,1.95-1.27,1.37,1.37,0,0,1,.58.12,6.18,6.18,0,0,0,2.56.67,2.11,2.11,0,0,0,1.53-.49c0-.49-.06-1-.09-1.52-.21-3.39-.48-7.61.6-10A13,13,0,0,1,27.83,5h1a13,13,0,0,1,12.08,7.78c1.07,2.41.81,6.63.59,10V23c0,.47-.06.93-.08,1.37a2,2,0,0,0,1.39.48h0a6.4,6.4,0,0,0,2.41-.67A1.82,1.82,0,0,1,46,24a2.29,2.29,0,0,1,.86.16h0a1.58,1.58,0,0,1,1.2,1.29c0,.5-.37,1.24-2.23,2-.19.08-.44.15-.7.24-1.06.34-2.67.85-3.16,2a2.73,2.73,0,0,0,.26,2.3v0c.13.31,3.35,7.65,10.53,8.83a.53.53,0,0,1,.44.55.88.88,0,0,1-.07.3c-.3.69-1.63,1.68-6.3,2.4-.38.06-.53.56-.76,1.6-.08.38-.17.75-.28,1.14a.62.62,0,0,1-.67.5h-.06a5.85,5.85,0,0,1-1-.13,14,14,0,0,0-2.81-.3,12.46,12.46,0,0,0-2,.17,9.7,9.7,0,0,0-3.85,2C33.49,50.35,31.61,51.68,28.66,51.68Z" transform="translate(-3.5 -5.03)"/></svg>
