<?xml version="1.0" encoding="utf-8"?>
<!-- Generator: Adobe Illustrator 17.1.0, SVG Export Plug-In . SVG Version: 6.00 Build 0)  -->
<!DOCTYPE svg PUBLIC "-//W3C//DTD SVG 1.1//EN" "http://www.w3.org/Graphics/SVG/1.1/DTD/svg11.dtd">
<svg version="1.1" id="Layer_1" xmlns="http://www.w3.org/2000/svg" xmlns:xlink="http://www.w3.org/1999/xlink" x="0px" y="0px"
	 viewBox="0 5.9 45 32" enable-background="new 0 5.9 45 32" xml:space="preserve">
<g>
	<path fill="#000000" d="M43.3,13.4c0,0-0.4-3-1.7-4.2c-1.6-1.7-3.4-1.7-4.3-1.7c-6-0.6-14.9-0.6-14.9-0.6l0,0c0,0-8.9,0-14.9,0.4
		C6.6,7.4,4.8,7.4,3.2,9.1c-1.3,1.3-1.8,4.1-1.8,4.1S1,16.7,1,20.3v3.3c0,3.4,0.4,7,0.4,7s0.4,3,1.7,4.2c1.6,1.7,3.8,1.6,4.7,1.7
		c3.4,0.3,14.5,0.4,14.5,0.4s8.9,0,14.9-0.4c0.8-0.1,2.7-0.1,4.3-1.7c1.2-1.3,1.7-4.2,1.7-4.2s0.4-3.4,0.4-7v-3.3
		C43.7,16.7,43.3,13.4,43.3,13.4z M17.9,27.5V15.4l11.6,5.9L17.9,27.5z"/>
</g>
</svg>
