<?xml version="1.0" encoding="utf-8"?>
<!DOCTYPE svg PUBLIC "-//W3C//DTD SVG 1.1//EN" "http://www.w3.org/Graphics/SVG/1.1/DTD/svg11.dtd">
<svg xmlns="http://www.w3.org/2000/svg" xmlns:xlink="http://www.w3.org/1999/xlink" style="display: none">
    <symbol id="svg-arrow-down" viewBox="0 0 61.2 33.5">
  <style>.st01 { fill: white; }</style>
  <path class="st01" d="M30.4 33.5c-.7 0-1.3-.3-1.8-.8L.7 4.2c-1-1-1-2.6 0-3.5 1-1 2.6-.9 3.5 0l26.2 26.7L56.9 1c1-1 2.6-1 3.5 0s1 2.6 0 3.5L32.2 32.8c-.5.4-1.1.7-1.8.7z"/>
</symbol>
<symbol id="svg-basket" viewBox="0 0 60.9 51.1">
  <path d="M60.4 17c-.5-.6-1.2-1-2-1h-8.8L32.2.6c-.9-.8-2.4-.8-3.3 0L11.6 16.1H2.5c-.8 0-1.5.4-2 1s-.6 1.4-.4 2.2l8.2 30c.3 1.1 1.3 1.8 2.4 1.8h39.5c1.1 0 2.1-.8 2.4-1.8l8.2-30c.2-.8 0-1.6-.4-2.3zM30.6 5.9L42 16.1H19.1L30.6 5.9z"/>
</symbol>
<symbol id="svg-bin" viewBox="0 0 64 64">
  <path d="M53 9H38V6c0-1.657-1.343-3-3-3h-6c-1.657 0-3 1.343-3 3v3H11c-1.657 0-3 1.343-3 3v3h48v-3c0-1.657-1.343-3-3-3zM11 58c0 1.657 1.343 3 3 3h36c1.657 0 3-1.343 3-3V18H11v40zm30-31c0-1.657 1.343-3 3-3s3 1.343 3 3v25c0 1.657-1.343 3-3 3s-3-1.343-3-3V27zm-12 0c0-1.657 1.343-3 3-3s3 1.343 3 3v25c0 1.657-1.343 3-3 3s-3-1.343-3-3V27zm-12 0c0-1.657 1.343-3 3-3s3 1.343 3 3v25c0 1.657-1.343 3-3 3s-3-1.343-3-3V27z"/>
</symbol>
<symbol id="svg-cart" viewBox="0 0 50.6 45.5">
  <path d="M49.6 8.6H20.1c-1 0-1.5.7-1.2 1.7L23.6 24c.2.7 1 1.3 1.8 1.3h19.3c.8 0 1.6-.6 1.8-1.3l4.1-14c.2-.8-.3-1.4-1-1.4z"/>
  <path d="M46.7 29.7H20.9L10.5 0h-8C1.1 0 0 1.1 0 2.5S1.1 5 2.5 5H7l10.3 29.7h29.4c1.4 0 2.5-1.1 2.5-2.5 0-1.3-1.1-2.5-2.5-2.5z"/>
  <circle cx="22.7" cy="41" r="4.4"/>
  <circle cx="41.4" cy="41.1" r="4.4"/>
</symbol>
<symbol id="svg-close" viewBox="0 0 28.8 28.5">
  <path d="M17.9 14.4L28 4.3c1-1 1-2.6 0-3.5s-2.6-1-3.5 0l-10.1 10L4.3.7c-1-1-2.6-1-3.5 0s-1 2.6 0 3.5l10.1 10.1L1 24.2c-1 1-1 2.6 0 3.5.5.5 1.1.7 1.8.7s1.3-.2 1.8-.7l9.9-9.9 9.9 9.9c.5.5 1.1.7 1.8.7s1.3-.2 1.8-.7c1-1 1-2.6 0-3.5l-10.1-9.8z"/>
</symbol>
<symbol id="svg-cog" viewBox="0 0 48.3 48.4">
  <circle cx="24.2" cy="24.2" r="4.2"/>
  <path d="M47.4 20l-5.9-1c-.4-1.2-.8-2.3-1.4-3.4l3.4-4.9c.3-.5.2-1.1-.1-1.5L39.2 5c-.4-.4-1.1-.5-1.5-.1l-4.9 3.4c-1.1-.6-2.3-1.1-3.5-1.4L28.2 1c-.1-.5-.6-1-1.2-1h-5.9c-.6 0-1.1.4-1.2 1l-1.1 5.9c-1.2.4-2.3.8-3.3 1.4L10.6 5c-.4-.4-1.1-.4-1.5 0L5 9.2c-.4.4-.5 1.1-.1 1.5l3.3 4.9c-.6 1.1-1 2.2-1.4 3.3L1 20c-.5.1-1 .6-1 1.2v5.9c0 .6.4 1.1 1 1.2l5.8 1.1c.4 1.2.8 2.3 1.4 3.4l-3.3 4.8c-.3.5-.2 1.1.1 1.5l4.2 4.2c.4.4 1.1.5 1.5.1l4.8-3.3c1 .6 2.1 1 3.3 1.4l1.1 5.9c.1.5.6 1 1.2 1H27c.6 0 1.1-.4 1.2-1l1.1-5.8c1.2-.4 2.4-.8 3.4-1.4l4.9 3.4c.5.3 1.1.2 1.5-.1l4.2-4.2c.4-.4.5-1.1.1-1.5l-3.3-4.9c.6-1.1 1.1-2.2 1.4-3.4l5.8-1.1c.5-.1 1-.6 1-1.2v-5.9c0-.6-.4-1.2-.9-1.3zM24.2 34.3c-5.6 0-10.1-4.5-10.1-10.1s4.5-10.1 10.1-10.1 10.1 4.5 10.1 10.1c0 5.5-4.6 10.1-10.1 10.1z"/>
</symbol>
<symbol id="svg-facebook" viewBox="0 5.9 19 32">
  <path d="M17.9 11.9h-4.8c-.5 0-1.2.8-1.2 1.8v3.4h6v5h-6v14.8H6V22.2H1v-5h5v-2.8c0-4.1 3-7.5 6.9-7.5h4.8l.2 5z"/>
</symbol>
<symbol id="svg-instagram" viewBox="0 5.9 30.8 32">
  <path d="M26.1 19.6h-2.5c.1.7.3 1.5.3 2.3 0 5-3.8 9.4-8.6 9.4s-8.6-4.2-8.6-9.4c0-.7.1-1.6.3-2.3H4.3v12.7c0 .7.6 1.1 1.1 1.1H25c.7 0 1.1-.5 1.1-1.1V19.6zm0-8.2c0-.7-.5-1.1-1.1-1.1h-3.3c-.7 0-1.1.6-1.1 1.1v3.5c0 .7.5 1.1 1.1 1.1H25c.7 0 1.1-.6 1.1-1.1v-3.5zm-11 4.6c-3 0-5.5 2.6-5.5 5.8 0 3.3 2.5 5.9 5.5 5.9s5.5-2.6 5.5-5.9c0-3.1-2.3-5.8-5.5-5.8m11 20.9H4.3c-1.8 0-3.3-1.6-3.3-3.4V10.3c0-1.9 1.5-3.4 3.3-3.4h21.8c1.9 0 3.3 1.6 3.3 3.4v23.2c0 1.9-1.5 3.4-3.3 3.4"/>
</symbol>
<symbol id="svg-menu" viewBox="0 0 44.8 29">
  <path d="M2.5 5h39.8c1.4 0 2.5-1.1 2.5-2.5S43.7 0 42.3 0H2.5C1.1 0 0 1.1 0 2.5S1.1 5 2.5 5zM42.3 12H2.5C1.1 12 0 13.1 0 14.5S1.1 17 2.5 17h39.8c1.4 0 2.5-1.1 2.5-2.5S43.7 12 42.3 12zM42.3 24H2.5C1.1 24 0 25.1 0 26.5S1.1 29 2.5 29h39.8c1.4 0 2.5-1.1 2.5-2.5S43.7 24 42.3 24z"/>
</symbol>
<symbol id="svg-ok" viewBox="0 0 40.4 40.2">
  <path d="M16.4 40.2c-.8 0-1.6-.3-2.1-.9L.9 25.9c-1.2-1.2-1.2-3.1 0-4.2 1.2-1.2 3.1-1.2 4.2 0l10.7 10.7 19-30.9c.9-1.4 2.7-1.9 4.1-1 1.4.9 1.9 2.7 1 4.1L19 38.7c-.5.8-1.3 1.3-2.2 1.4-.2 0-.3.1-.4.1z"/>
</symbol>
<symbol id="svg-phone" viewBox="0 0 18 18">
  <path d="M3.6 7.8c1.4 2.8 3.8 5.1 6.6 6.6l2.2-2.2c.3-.3.7-.4 1-.2 1.1.4 2.3.6 3.6.6.6 0 1 .4 1 1V17c0 .6-.4 1-1 1C7.6 18 0 10.4 0 1c0-.6.4-1 1-1h3.5c.6 0 1 .4 1 1 0 1.2.2 2.4.6 3.6.1.3 0 .7-.2 1L3.6 7.8z"/>
</symbol>
<symbol id="svg-plus" viewBox="0 0 28 28">
  <path d="M26 12H16V2c0-1.1-.9-2-2-2s-2 .9-2 2v10H2c-1.1 0-2 .9-2 2s.9 2 2 2h10v10c0 1.1.9 2 2 2s2-.9 2-2V16h10c1.1 0 2-.9 2-2s-.9-2-2-2z"/>
</symbol>
<symbol id="svg-search" viewBox="0 0 50.6 50.6">
  <path d="M49.7 45.4L35.4 31.2c2.5-3.4 3.8-7.4 3.8-11.6C39.2 8.8 30.4 0 19.6 0S0 8.8 0 19.6s8.8 19.6 19.6 19.6c4.2 0 8.2-1.3 11.6-3.8l14.2 14.2c.6.6 1.3.9 2.1.9s1.6-.3 2.1-.9c1.3-1.1 1.3-3 .1-4.2zM19.6 33.2C12.1 33.2 6 27.1 6 19.6S12.1 6 19.6 6s13.6 6.1 13.6 13.6-6.1 13.6-13.6 13.6z"/>
</symbol>
<symbol id="svg-twitter" viewBox="0 5.9 39.8 32">
  <path d="M38.3 10.4c-1.4.7-2.9 1-4.4 1.3 1.6-1 2.7-2.5 3.3-4.3-1.5.8-3.2 1.6-4.8 1.9-1.4-1.6-3.3-2.5-5.7-2.5-4.3 0-7.6 3.3-7.6 7.6 0 .7.2 1.1.3 1.8-6.5-.3-12-3.5-15.8-8.1-.5 1.2-.8 2.6-.8 3.9 0 2.6 1.4 4.9 3.3 6.3-1.3 0-2.5-.5-3.5-1.1v.2c0 3.7 2.6 6.7 6 7.4-.7.2-1.4.3-1.9.3s-1 0-1.6-.2c1 3.1 3.7 5.3 7.2 5.4-2.6 1.9-5.9 3.3-9.5 3.3-.7 0-1.3 0-1.9-.2 3.3 2.1 7.3 3.5 11.7 3.5 14 0 21.7-11.5 21.7-21.7v-1c1.5-.9 2.9-2.2 4-3.8z"/>
</symbol>
<symbol id="svg-youtube" viewBox="0 5.9 45 32">
  <path d="M43.3 13.4s-.4-3-1.7-4.2c-1.6-1.7-3.4-1.7-4.3-1.7-6-.6-14.9-.6-14.9-.6s-8.9 0-14.9.4c-.9.1-2.7.1-4.3 1.8-1.3 1.3-1.8 4.1-1.8 4.1S1 16.7 1 20.3v3.3c0 3.4.4 7 .4 7s.4 3 1.7 4.2c1.6 1.7 3.8 1.6 4.7 1.7 3.4.3 14.5.4 14.5.4s8.9 0 14.9-.4c.8-.1 2.7-.1 4.3-1.7 1.2-1.3 1.7-4.2 1.7-4.2s.4-3.4.4-7v-3.3c.1-3.6-.3-6.9-.3-6.9zM17.9 27.5V15.4l11.6 5.9-11.6 6.2z"/>
</symbol>

</svg>