<!-- Generator: Adobe Illustrator 19.2.0, SVG Export Plug-In  -->
<svg version="1.1"
	 xmlns="http://www.w3.org/2000/svg" xmlns:xlink="http://www.w3.org/1999/xlink" xmlns:a="http://ns.adobe.com/AdobeSVGViewerExtensions/3.0/"
	 x="0px" y="0px" width="1077.3px" height="219px" viewBox="0 0 1077.3 219" style="enable-background:new 0 0 1077.3 219;"
	 xml:space="preserve">
<defs>
</defs>
<polygon fill="#FFFFFF" points="1069.6,44 1067,48.5 1069.6,53 1074.7,53 1077.3,48.5 1074.7,44 "/>
<rect x="429.7" y="48.7" transform="matrix(0.7071 -0.7071 0.7071 0.7071 89.7259 322.1969)" width="8.2" height="8.2" fill="#FFFFFF"/>
<polygon fill="#FFFFFF" points="901.1,164 899,167.5 901.1,171 905.3,171 907.4,167.5 905.3,164 "/>
<rect x="268" y="209" fill="#FFFFFF" width="11" height="10"/>
<polygon fill="#FFFFFF" points="725.6,53.3 729.3,47 722,47 "/>
<polygon fill="#FFFFFF" points="996,93 990,93 990,86 985,86 985,93 979,93 979,97 985,97 985,103 990,103 990,97 996,97 "/>
<polygon fill="#FFFFFF" points="17,7 11,7 11,0 6,0 6,7 0,7 0,11 6,11 6,17 11,17 11,11 17,11 "/>
</svg>
