<!-- Generator: Adobe Illustrator 19.2.0, SVG Export Plug-In  -->
<svg version="1.1"
	 xmlns="http://www.w3.org/2000/svg" xmlns:xlink="http://www.w3.org/1999/xlink" xmlns:a="http://ns.adobe.com/AdobeSVGViewerExtensions/3.0/"
	 x="0px" y="0px" width="288.5px" height="106.1px" viewBox="0 0 288.5 106.1" style="enable-background:new 0 0 288.5 106.1;"
	 xml:space="preserve">
<style type="text/css">
	.st0{fill:#FBC137;}
	.st1{fill:#78154F;}
	.st2{fill:#097D84;}
	.st3{fill:#78164F;}
	.st4{fill:#EA6168;}
</style>
<defs>
</defs>
<g>
	<path d="M67.9,31.9h11.6L65,60.6v21.3H53V60.6L38.7,31.9h12l8.5,19.2L67.9,31.9z"/>
	<path d="M84,31.9h31v10H96v9h12.3l-0.7,9H96v12h20v10H84V31.9z"/>
	<path d="M129.2,68.9c3.9,2.6,6.5,3.8,10.6,3.9c4.6,0.2,6.9-1.8,6.9-4.8c0-3.1-2.8-4.1-7.1-5.9l-6.4-2.7c-5.1-2-9.9-6.3-9.9-13.5
		c0-8.2,7.3-14.7,17.5-14.7c5.7,0,10.3,1,14.5,5.3l-4.3,8.4c-3.3-2.5-6.3-3.9-10.2-3.9c-3.9,0-6.3,1.7-6.3,4.5c0,3,3.3,4.1,7.5,5.8
		l6.4,2.6c6,2.4,9.8,6.4,9.8,13.4c0,8.2-6.8,15.3-18.6,15.3c-6.4,0-13.2-2.4-18.2-7.1L129.2,68.9z"/>
	<circle class="st0" cx="167.8" cy="76.8" r="5.6"/>
</g>
<rect y="78.9" class="st1" width="9" height="9"/>
<rect x="196" y="1.9" transform="matrix(0.7071 -0.7071 0.7071 0.7071 54.2238 143.6355)" class="st2" width="9" height="9"/>
<polygon class="st3" points="246.5,96.3 242.5,98.5 238.5,96.3 238.5,91.8 242.5,89.5 246.5,91.8 "/>
<polygon class="st4" points="288.5,45.4 284.5,47.7 280.5,45.4 280.5,40.9 284.5,38.7 288.5,40.9 "/>
<polygon class="st1" points="214.7,101.1 211.7,101.1 211.7,98.1 209.7,98.1 209.7,101.1 206.7,101.1 206.7,103.1 209.7,103.1
	209.7,106.1 211.7,106.1 211.7,103.1 214.7,103.1 "/>
<polygon class="st0" points="32.2,6.9 27.2,15.6 22.1,6.9 "/>
</svg>
