<svg id="Layer_1" data-name="Layer 1" xmlns="http://www.w3.org/2000/svg" viewBox="0 0 411.71 318">
    <defs>
        <style>
            .cls-1{fill:#fbc137;}
            .cls-2{fill:#78154f;}
            .cls-3{fill:#037c83;}
            .cls-4{fill:#eb6067;}
        </style>
    </defs>
    <path d="M330.15,252h21.68L324,305v39H303V305l-27.34-53h22.24l15.84,35.67Z" transform="translate(-195.29 -175)"/>
    <path d="M361,252h58v18H382v18h23.34L404,305H382v21h38v18H361Z" transform="translate(-195.29 -175)"/>
    <path d="M444.22,320.43c7.25,4.83,12,7,19.73,7.28,8.58.29,12.81-3.38,12.81-8.87,0-5.77-5.21-7.6-13.23-11l-12-5.07c-9.43-3.8-18.44-11.69-18.44-25.06,0-15.21,13.52-27.31,32.66-27.31,10.56,0,19.18,1.95,27.07,9.83l-8.06,15.37c-6.05-4.65-11.69-7.32-19-7.32s-11.69,3.1-11.69,8.31c0,5.63,6.05,7.6,13.94,10.84l11.83,4.79c11.12,4.51,18.16,12,18.16,24.92,0,15.2-12.67,28.44-34.63,28.44a50.26,50.26,0,0,1-33.93-13.23Z"
          transform="translate(-195.29 -175)"/>
    <circle class="cls-1" cx="320.72" cy="160.06" r="10.33"/>
    <rect class="cls-2" x="6.71" y="189" width="11" height="10"/>
    <rect class="cls-3" x="341.72" y="421.38" width="12.57" height="12.57"
          transform="translate(-395.76 196.33) rotate(-45)"/>
    <circle class="cls-4" cx="277.39" cy="215.6" r="6.4"/>
    <polygon points="126.43 218 123 212 126.43 206 133.29 206 136.71 212 133.29 218 126.43 218"/>
    <polygon class="cls-4" points="3.43 318 0 312 3.43 306 10.29 306 13.71 312 10.29 318 3.43 318"/>
    <polygon class="cls-3"
             points="340.71 50.54 334.21 54.2 327.71 50.54 327.71 43.21 334.21 39.55 340.71 43.21 340.71 50.54"/>
    <rect class="cls-2" x="404.24" y="179.93" width="12.8" height="3.2" transform="translate(53.35 -412.2) rotate(45)"/>
    <rect class="cls-2" x="404.24" y="179.93" width="12.8" height="3.2"
          transform="translate(-203.37 168.54) rotate(-45)"/>
    <rect class="cls-2" x="394.71" y="7" width="17" height="4"/>
    <rect class="cls-2" x="590.5" y="181.5" width="17" height="4" transform="translate(220.21 607.5) rotate(-90)"/>
    <polygon class="cls-1" points="55.73 29 47.15 43.86 38.56 29 55.73 29"/>

    <!-- Your -->
    <g class="logo__your">
        <path d="M291.47,365.67v-3.55L288.15,357h2.11l2.14,3.47,2.15-3.47h2.09l-3.31,5.12v3.55Z"
              transform="translate(-195.29 -175)"/>
        <path d="M300.4,361.34a4.53,4.53,0,1,1,4.54,4.49A4.36,4.36,0,0,1,300.4,361.34Zm7.16,0a2.64,2.64,0,1,0-2.63,2.85A2.62,2.62,0,0,0,307.57,361.34Z"
              transform="translate(-195.29 -175)"/>
        <path d="M314.67,362.2V357h1.87v5.15a2,2,0,1,0,4.07,0V357h1.88v5.2c0,2.14-1.27,3.63-3.91,3.63S314.67,364.34,314.67,362.2Z"
              transform="translate(-195.29 -175)"/>
        <path d="M333,365.67l-1.7-3.08H330v3.08h-1.85V357h4.06a2.71,2.71,0,0,1,2.92,2.79,2.51,2.51,0,0,1-1.91,2.57l2,3.3Zm.18-5.89a1.17,1.17,0,0,0-1.29-1.16h-2V361h2A1.18,1.18,0,0,0,333.19,359.78Z"
              transform="translate(-195.29 -175)"/>
    </g>
    <!-- /Your -->

    <!-- Event -->
    <g class="logo__event">
        <path d="M347.61,365.67V357h6.14v1.63h-4.29v1.82h4.2v1.63h-4.2v2h4.29v1.63Z" transform="translate(-195.29 -175)"/>
        <path d="M361.52,365.67,358.18,357h2.09l2.4,6.66,2.41-6.66h2.09l-3.34,8.67Z" transform="translate(-195.29 -175)"/>
        <path d="M371.88,365.67V357H378v1.63h-4.29v1.82h4.2v1.63h-4.2v2H378v1.63Z" transform="translate(-195.29 -175)"/>
        <path d="M389.34,365.67,385.2,360v5.66h-1.85V357h1.9l4,5.45V357h1.85v8.67Z" transform="translate(-195.29 -175)"/>
        <path d="M398.74,365.67v-7H396.2V357h6.92v1.63H400.6v7Z" transform="translate(-195.29 -175)"/>
    </g>
    <!-- /Event -->
    <g class="logo__solutions">
        <path d="M414.84,364.45l1-1.44a3.81,3.81,0,0,0,2.76,1.18c1,0,1.51-.46,1.51-1,0-1.51-5-.46-5-3.72,0-1.44,1.25-2.64,3.29-2.64a4.82,4.82,0,0,1,3.38,1.21l-1,1.38a3.72,3.72,0,0,0-2.52-.95c-.78,0-1.22.34-1.22.86,0,1.37,5,.44,5,3.68,0,1.59-1.14,2.78-3.47,2.78A5,5,0,0,1,414.84,364.45Z"
              transform="translate(-195.29 -175)"/>
        <path d="M426.72,361.34a4.53,4.53,0,1,1,4.54,4.49A4.36,4.36,0,0,1,426.72,361.34Zm7.16,0a2.64,2.64,0,1,0-2.63,2.85A2.62,2.62,0,0,0,433.89,361.34Z"
              transform="translate(-195.29 -175)"/>
        <path d="M440.91,365.67V357h1.86v7h3.67v1.63Z" transform="translate(-195.29 -175)"/>
        <path d="M451.27,362.2V357h1.87v5.15a2,2,0,1,0,4.07,0V357h1.88v5.2c0,2.14-1.27,3.63-3.91,3.63S451.27,364.34,451.27,362.2Z"
              transform="translate(-195.29 -175)"/>
        <path d="M466.71,365.67v-7h-2.54V357h6.92v1.63h-2.52v7Z" transform="translate(-195.29 -175)"/>
        <path d="M476.18,365.67V357H478v8.67Z" transform="translate(-195.29 -175)"/>
        <path d="M483.22,361.34a4.53,4.53,0,1,1,4.54,4.49A4.36,4.36,0,0,1,483.22,361.34Zm7.16,0a2.64,2.64,0,1,0-2.63,2.85A2.62,2.62,0,0,0,490.39,361.34Z"
              transform="translate(-195.29 -175)"/>
        <path d="M503.46,365.67,499.33,360v5.66h-1.85V357h1.9l4,5.45V357h1.85v8.67Z" transform="translate(-195.29 -175)"/>
        <path d="M510.26,364.45l1-1.44a3.81,3.81,0,0,0,2.76,1.18c1,0,1.51-.46,1.51-1,0-1.51-5-.46-5-3.72,0-1.44,1.25-2.64,3.29-2.64a4.82,4.82,0,0,1,3.38,1.21l-1,1.38a3.72,3.72,0,0,0-2.52-.95c-.78,0-1.22.34-1.22.86,0,1.37,5,.44,5,3.68,0,1.59-1.14,2.78-3.47,2.78A5,5,0,0,1,510.26,364.45Z"
              transform="translate(-195.29 -175)"/>
    </g>
</svg>
