<!-- Generator: Adobe Illustrator 19.2.0, SVG Export Plug-In  -->
<svg version="1.1"
	 xmlns="http://www.w3.org/2000/svg" xmlns:xlink="http://www.w3.org/1999/xlink" xmlns:a="http://ns.adobe.com/AdobeSVGViewerExtensions/3.0/"
	 x="0px" y="0px" width="86.2px" height="32px" viewBox="0 0 86.2 32" style="enable-background:new 0 0 86.2 32;"
	 xml:space="preserve">
<style type="text/css">
	.st0{fill:#FFFFFF;}
	.st1{fill:#FCC137;}
</style>
<defs>
</defs>
<title>Group 4</title>
<desc>Created with Sketch.</desc>
<g>
	<polygon class="st0" points="13.1,12.5 7.7,0.5 0,0.5 9.4,18.3 9.4,31.4 16.6,31.4 16.6,18.3 26.2,0.5 18.7,0.5 	"/>
	<polygon class="st0" points="36.6,18.3 44.1,18.3 44.6,12.6 36.6,12.6 36.6,6.6 49.3,6.6 49.3,0.5 29.4,0.5 29.4,31.4 49.7,31.4
		49.7,25.4 36.6,25.4 	"/>
	<path class="st0" d="M70.2,14l-4.1-1.6c-2.7-1.1-4.8-1.7-4.8-3.6c0-1.7,1.5-2.8,4-2.8c2.5,0,4.5,0.9,6.5,2.5l2.8-5.2
		C72,0.7,69,0,65.4,0c-6.6,0-11.2,4.1-11.2,9.2c0,4.5,3.1,7.1,6.3,8.4l4.1,1.7c2.8,1.1,4.6,1.7,4.6,3.7c0,1.8-1.5,3.1-4.4,3
		c-2.6-0.1-4.3-0.8-6.8-2.4l-5.1,4c3.2,2.9,7.6,4.4,11.7,4.4c7.6,0,11.9-4.4,11.9-9.6C76.5,18.1,74.1,15.6,70.2,14z"/>
</g>
<path id="Fill-5_1_" class="st1" d="M86.2,28.4c0,1.9-1.6,3.5-3.6,3.5c-2,0-3.6-1.6-3.6-3.5s1.6-3.5,3.6-3.5
	C84.6,25,86.2,26.5,86.2,28.4"/>
</svg>
