<svg id="Layer_1" data-name="Layer 1" xmlns="http://www.w3.org/2000/svg" viewBox="0 0 90 90"><defs><style>.cls-1{fill:#fbc138;}</style></defs><title>Artboard 1</title><polygon points="15 41.5 9.6 29.5 1.9 29.5 11.3 47.3 11.3 60.4 18.5 60.4 18.5 47.3 28.1 29.5 20.6 29.5 15 41.5"/><polygon points="38.5 47.3 46 47.3 46.5 41.6 38.5 41.6 38.5 35.6 51.2 35.6 51.2 29.5 31.3 29.5 31.3 60.4 51.6 60.4 51.6 54.4 38.5 54.4 38.5 47.3"/><path d="M72.1,43,68,41.4c-2.7-1.1-4.8-1.7-4.8-3.6,0-1.7,1.5-2.8,4-2.8a10,10,0,0,1,6.5,2.5l2.8-5.2c-2.6-2.6-5.6-3.3-9.2-3.3-6.6,0-11.2,4.1-11.2,9.2,0,4.5,3.1,7.1,6.3,8.4l4.1,1.7c2.8,1.1,4.6,1.7,4.6,3.7,0,1.8-1.5,3.1-4.4,3a12.22,12.22,0,0,1-6.8-2.4l-5.1,4A17.75,17.75,0,0,0,66.5,61c7.6,0,11.9-4.4,11.9-9.6C78.4,47.1,76,44.6,72.1,43Z"/><path id="Fill-5" class="cls-1" d="M88.1,57.4a3.6,3.6,0,1,1-3.6-3.5,3.63,3.63,0,0,1,3.6,3.5"/></svg>