<?xml version="1.0" ?><!DOCTYPE svg  PUBLIC '-//W3C//DTD SVG 1.1//EN'  'http://www.w3.org/Graphics/SVG/1.1/DTD/svg11.dtd'>
<svg enable-background="new 0 0 128 128" height="128px" id="Layer_1" version="1.1" viewBox="0 0 128 128" width="128px" xml:space="preserve" xmlns="http://www.w3.org/2000/svg" xmlns:xlink="http://www.w3.org/1999/xlink">
    <path fill="#610a3d" d="M63.998,128c-22.644,0-46.144,0-56.493,0c-3.963,0-4.941-1.062-4.995-5.104c-0.053-3.797-0.114-11.849,14.319-20.422  c16.719-9.933,29.771-10.771,31.49-21.562c0.543-3.396,0.66-4.925,0.566-8.272c-0.162-0.154-4.911,1.283-11.189,1.283  c-6.278,0-12.414-3.215-12.414-3.215s2.574-1.852,4.709-7.162c4.422-11.828,3.371-19.992,3.42-31.668  c0.053-11.609,4.062-20.02,8.576-24.405C47.299,2.316,55.195-2.33,64,1.283c8.805-3.612,16.701,1.034,22.012,6.191  c4.514,4.386,8.523,12.796,8.576,24.405c0.049,11.676-1.002,19.84,3.42,31.668c2.135,5.311,4.709,7.162,4.709,7.162  s-6.136,3.215-12.414,3.215c-6.277,0-11.027-1.438-11.189-1.283c-0.094,3.346,0.023,4.877,0.566,8.272  c1.719,10.79,14.771,11.629,31.491,21.562c14.433,8.573,14.372,16.625,14.319,20.422c-0.055,4.041-1.032,5.104-4.995,5.104  c-10.349,0-33.849,0-56.493,0"/>
</svg>
